<?xml version="1.0" encoding="UTF-8"?>
<svg version="1.1" xmlns="http://www.w3.org/2000/svg" width="422" height="100">
<path d="M0 0 C3.125 0.25 3.125 0.25 4.8671875 1.28515625 C6.86483871 4.40571079 5.94998761 7.45882498 5.375 10.9375 C5.27445312 11.62005859 5.17390625 12.30261719 5.0703125 13.00585938 C4.86727236 14.38418952 4.65828896 15.76165732 4.44335938 17.13818359 C3.93644045 20.50079763 3.53418372 23.87423428 3.125 27.25 C3.785 26.59 4.445 25.93 5.125 25.25 C8.97450106 22.68366596 11.62788529 22.41248066 16.125 23.25 C19 24.5 19 24.5 21.125 27.25 C22.13313029 31.21918315 22.69631845 35.18072436 23.125 39.25 C24.775 38.59 26.425 37.93 28.125 37.25 C28.125 36.59 28.125 35.93 28.125 35.25 C29.115 35.25 30.105 35.25 31.125 35.25 C31.0625 37.5 31.0625 37.5 30.125 40.25 C27.0551813 42.72005978 24.13003984 44.25 20.125 44.25 C20.01800781 44.83523437 19.91101563 45.42046875 19.80078125 46.0234375 C19.03570743 48.54420096 18.03419655 49.89613865 16.3125 51.875 C15.81105469 52.46539062 15.30960937 53.05578125 14.79296875 53.6640625 C10.91293062 57.35327908 7.52103635 57.54549666 2.25 57.5625 C1.05632812 57.57925781 -0.13734375 57.59601563 -1.3671875 57.61328125 C-5.16079715 57.22040185 -7.5975402 56.14932304 -10.875 54.25 C-11.349375 54.745 -11.82375 55.24 -12.3125 55.75 C-16.08444152 57.95796577 -19.60369653 57.97235279 -23.875 57.25 C-26.90715675 55.05168636 -27.69154398 53.80036806 -28.875 50.25 C-29.65875 51.219375 -30.4425 52.18875 -31.25 53.1875 C-32.78788705 55.08962346 -33.66759913 56.14629957 -35.875 57.25 C-43.34166667 57.60555556 -43.34166667 57.60555556 -46.875 55.25 C-46.875 54.59 -46.875 53.93 -46.875 53.25 C-47.865 53.91 -48.855 54.57 -49.875 55.25 C-54.113916 57.66609614 -57.04159671 57.80465284 -61.875 57.25 C-65.11113354 55.50746655 -65.69895315 54.77814056 -66.875 51.25 C-66.8132344 48.91413732 -66.67958627 46.57976785 -66.5 44.25 C-66.40976562 43.0125 -66.31953125 41.775 -66.2265625 40.5 C-65.875 37.25 -65.875 37.25 -64.875 34.25 C-69.165 34.25 -73.455 34.25 -77.875 34.25 C-77.99875 35.631875 -78.1225 37.01375 -78.25 38.4375 C-78.87463808 44.74724992 -79.86473225 50.99222498 -80.875 57.25 C-86.9296875 57.4453125 -86.9296875 57.4453125 -88.875 57.25 C-90.875 55.25 -90.875 55.25 -90.95922852 53.03613281 C-90.0972694 43.91838113 -88.50849819 34.99123423 -86.8125 26 C-86.52745522 24.46494384 -86.24294647 22.92978805 -85.95898438 21.39453125 C-85.2704828 17.67851257 -84.57479131 13.96390844 -83.875 10.25 C-86.185 10.91 -88.495 11.57 -90.875 12.25 C-91.205 14.23 -91.535 16.21 -91.875 18.25 C-90.885 18.91 -89.895 19.57 -88.875 20.25 C-89.25 22.1875 -89.25 22.1875 -89.875 24.25 C-92.71583641 25.67041821 -94.72977278 25.56452272 -97.875 25.25 C-100.25 23.6875 -100.25 23.6875 -101.875 21.25 C-102.63770179 16.67378924 -102.25945699 14.83217773 -99.6875 10.9375 C-94.76742594 6.2360959 -90.29652352 5.9282278 -83.6875 6 C-82.96369141 5.99226563 -82.23988281 5.98453125 -81.49414062 5.9765625 C-76.12847222 5.99652778 -76.12847222 5.99652778 -73.875 8.25 C-73.74656107 15.71016101 -75.04364599 23.04667423 -76.875 30.25 C-72.585 30.25 -68.295 30.25 -63.875 30.25 C-63.74222656 29.1878125 -63.60945313 28.125625 -63.47265625 27.03125 C-62.17382812 16.640625 -62.17382812 16.640625 -60.875 6.25 C-54.8203125 6.0546875 -54.8203125 6.0546875 -52.875 6.25 C-50.875 8.25 -50.875 8.25 -50.68164062 11.46264648 C-50.86376951 15.03002709 -51.30010612 18.34216214 -51.96875 21.84765625 C-52.19433594 23.06130859 -52.41992188 24.27496094 -52.65234375 25.52539062 C-52.89082031 26.77513672 -53.12929688 28.02488281 -53.375 29.3125 C-53.84866753 31.80245498 -54.31759061 34.29331823 -54.78125 36.78515625 C-54.99072266 37.882229 -55.20019531 38.97930176 -55.41601562 40.10961914 C-55.86860374 43.20623663 -55.95727467 46.12561934 -55.875 49.25 C-54.885 49.58 -53.895 49.91 -52.875 50.25 C-49.44647323 47.28511742 -48.3036287 45.29118451 -47.609375 40.828125 C-47.44179688 39.80332031 -47.27421875 38.77851562 -47.1015625 37.72265625 C-46.86566406 36.12744141 -46.86566406 36.12744141 -46.625 34.5 C-46.45226562 33.42105469 -46.27953125 32.34210937 -46.1015625 31.23046875 C-45.67812879 28.57224605 -45.26988076 25.91258831 -44.875 23.25 C-38.72265625 23.15234375 -38.72265625 23.15234375 -36.875 23.25 C-35.875 24.25 -35.875 24.25 -35.625 27.75 C-35.6743329 35.33493266 -37.44362193 42.82898631 -38.875 50.25 C-35.65645132 49.3171664 -34.16039026 48.64783665 -32.1796875 45.88671875 C-28.59227071 38.48644641 -26.36200999 31.33724731 -24.875 23.25 C-18.72265625 23.15234375 -18.72265625 23.15234375 -16.875 23.25 C-15.875 24.25 -15.875 24.25 -15.6875 27.5625 C-15.73004058 32.27599634 -16.56522166 36.79610504 -17.4375 41.41796875 C-17.84937568 44.08412826 -17.95373629 46.55820302 -17.875 49.25 C-15.91569235 50.51363949 -15.91569235 50.51363949 -13.83618164 49.64990234 C-11.08700498 47.68752478 -11.05769376 46.14425301 -10.49609375 42.8515625 C-10.29854492 41.74087402 -10.10099609 40.63018555 -9.89746094 39.48583984 C-9.70442383 38.2942627 -9.51138672 37.10268555 -9.3125 35.875 C-8.99780762 34.06249756 -8.99780762 34.06249756 -8.67675781 32.21337891 C-7.24459737 23.85763849 -5.92996224 15.47937295 -4.77514648 7.08056641 C-3.83339052 0.33333831 -3.83339052 0.33333831 0 0 Z M5.6875 31.125 C0.04963995 37.15461468 -1.36241283 45.30489886 -1.875 53.25 C0.8696344 53.83776634 0.8696344 53.83776634 4.125 53.25 C7.33949733 50.63406424 9.60891228 47.62623392 11.0625 43.75 C11.14377616 40.49895353 10.6685719 37.45103453 10.125 34.25 C10.125 33.59 10.125 32.93 10.125 32.25 C10.785 32.25 11.445 32.25 12.125 32.25 C11.795 31.26 11.465 30.27 11.125 29.25 C8.00877389 28.94514462 8.00877389 28.94514462 5.6875 31.125 Z " fill="#4F9238" transform="translate(380.875,21.75)"/>
<path d="M0 0 C2.79227731 2.44324265 4.74336046 4.43472234 5.46875 8.15234375 C5.52443974 12.67017421 5.4766813 15.04899808 2.875 18.875 C-0.4595728 21.04972139 -2.09685718 21.44389206 -6 20.75 C-6.66 19.76 -7.32 18.77 -8 17.75 C-6.9790625 16.4815625 -6.9790625 16.4815625 -5.9375 15.1875 C-3.62242533 11.08010946 -3.92236526 9.24014476 -5 4.75 C-7.7936369 3.56807669 -9.0030715 3.75098027 -11.9375 4.6875 C-16.95003988 8.06329216 -19.12170851 12.53335957 -21.3125 18.0625 C-22.46842152 24.26244269 -22.8534358 30.1422795 -20.875 36.1875 C-18.52102719 39.40459617 -16.5898898 40.98892199 -13 42.75 C-6.79405265 43.46215789 -1.73048879 42.17009702 4 39.75 C5.58921537 38.16078463 5.44729824 36.32274294 5.75390625 34.12890625 C5.88603516 33.19369141 6.01816406 32.25847656 6.15429688 31.29492188 C6.28900391 30.31072266 6.42371094 29.32652344 6.5625 28.3125 C6.77036133 26.84200195 6.77036133 26.84200195 6.98242188 25.34179688 C7.71451258 20.56333955 7.71451258 20.56333955 8 15.75 C9.47906892 15.72310784 10.95827483 15.70365379 12.4375 15.6875 C13.26121094 15.67589844 14.08492187 15.66429688 14.93359375 15.65234375 C17 15.75 17 15.75 18 16.75 C17.93359908 18.66959033 17.79435534 20.58674234 17.625 22.5 C17.52574219 23.66402344 17.42648438 24.82804687 17.32421875 26.02734375 C17.21722656 27.25582031 17.11023438 28.48429687 17 29.75 C16.80978489 32.18728962 16.62213511 34.62478132 16.4375 37.0625 C16.29166667 38.95833333 16.14583333 40.85416667 16 42.75 C20.20380166 41.34873278 20.80627773 39.01016927 22.796875 35.21484375 C25.98980836 28.67347704 27.43130295 23.02932228 28 15.75 C30.97 15.75 33.94 15.75 37 15.75 C38.33950518 18.42901036 37.91402065 20.14886842 37.625 23.125 C37.52574219 24.18976562 37.42648438 25.25453125 37.32421875 26.3515625 C37.21722656 27.47304688 37.11023438 28.59453125 37 29.75 C36.80955816 31.99975291 36.62190339 34.24974409 36.4375 36.5 C36.29166667 38.25 36.14583333 40 36 41.75 C36.66 42.08 37.32 42.41 38 42.75 C41.07343042 41.09860455 42.7222408 39.6268443 43.78759766 36.26367188 C44.3916859 33.18328295 44.87728 30.10871428 45.3125 27 C45.48072266 25.92105469 45.64894531 24.84210937 45.82226562 23.73046875 C46.23388251 21.07259974 46.62564789 18.41332949 47 15.75 C49.64 15.75 52.28 15.75 55 15.75 C55.99 18.72 55.99 18.72 57 21.75 C57.804375 20.945625 58.60875 20.14125 59.4375 19.3125 C63.02922012 15.72077988 63.89963021 15.61026751 69.08984375 15.421875 C69.72019531 15.53015625 70.35054688 15.6384375 71 15.75 C73.31282587 19.21923881 73.42478586 20.67205575 73 24.75 C71.875 26.625 71.875 26.625 70 27.75 C66.8125 27.9375 66.8125 27.9375 64 27.75 C64 26.1 64 24.45 64 22.75 C55.64117808 30.18006393 53.99351823 38.99708346 52 49.75 C49.36 49.75 46.72 49.75 44 49.75 C43.67 48.76 43.34 47.77 43 46.75 C42.01 47.4925 42.01 47.4925 41 48.25 C36.88248556 50.30875722 34.58746602 50.25971845 30 49.75 C27.625 47.875 27.625 47.875 26 45.75 C25.34 45.09 24.68 44.43 24 43.75 C23.195625 44.554375 22.39125 45.35875 21.5625 46.1875 C17.8 49.95 17.8 49.95 13.6875 50.125 C9.85845617 50.11280559 9.32268624 50.06481584 6.4375 47.25 C5.963125 46.425 5.48875 45.6 5 44.75 C3.906875 45.389375 2.81375 46.02875 1.6875 46.6875 C-5.27159422 50.7579136 -13.73796179 51.10216462 -21.5234375 49.1015625 C-26.44048334 46.89736954 -29.73831993 43.63668224 -32 38.75 C-34.87424246 30.03100612 -34.3802465 21.43213726 -30.83984375 12.98046875 C-24.85601071 1.86287366 -12.45084681 -5.18785284 0 0 Z " fill="#4D9435" transform="translate(160,29.25)"/>
<path d="M0 0 C2.20741085 1.23908717 3.62664731 2.31414731 5.4375 4.125 C8.40281461 3.91319181 9.9350644 2.7932904 12.4375 1.125 C18.2031674 -2.71877827 24.87285104 -2.70493617 31.5859375 -1.484375 C38.15237185 0.54005931 43.36639812 5.27372025 46.60546875 11.296875 C49.2014893 18.1708449 49.68343791 25.55208528 47.125 32.5 C43.81006972 39.006253 38.52383402 43.99520336 33.4375 49.125 C32.55884277 50.01203613 31.68018555 50.89907227 30.77490234 51.81298828 C24.35872245 58.28017473 17.90698278 64.71116316 11.4375 71.125 C18.7837281 78.55706084 28.14630061 85.00234448 38.9375 85.6875 C43.66171242 85.49381571 47.3092033 83.50713899 51.37109375 81.21875 C53.4375 80.125 53.4375 80.125 55.4375 80.125 C55.80875 79.1659375 55.80875 79.1659375 56.1875 78.1875 C56.87533959 76.502293 57.57996585 74.82248741 58.35546875 73.17578125 C61.1040647 67.31000369 62.88725428 61.40819288 64.4375 55.125 C63.64988281 54.83109375 62.86226563 54.5371875 62.05078125 54.234375 C59.00059831 52.93952903 57.97741798 52.04273934 56.4375 49.125 C55.9375 46.1875 55.9375 46.1875 56.4375 43.125 C58.87543831 39.89831695 60.59308401 38.406472 64.4375 37.125 C68.06353173 37.125 69.59814111 37.91660975 72.4375 40.125 C74.93781654 43.87547482 74.97353554 45.68356266 74.4375 50.125 C73.63441406 50.88683594 72.83132812 51.64867187 72.00390625 52.43359375 C68.95274953 55.63336085 68.59497434 57.49540744 67.9375 61.8125 C66.26889439 70.75547615 63.5161941 78.10811001 56.4375 84.125 C55.2928125 85.2078125 55.2928125 85.2078125 54.125 86.3125 C47.76307578 90.60310005 39.89248823 90.95558293 32.4375 90.125 C26.13189175 88.49828723 20.63433971 86.07911717 15.4375 82.125 C14.71691406 81.58617188 13.99632812 81.04734375 13.25390625 80.4921875 C7.95732117 76.47408847 3.25832349 72.37707116 -0.9375 67.1875 C-3.30708093 64.28141018 -5.9851821 61.95753852 -8.86328125 59.56640625 C-12.03386728 56.87687465 -14.87728846 53.87067139 -17.6875 50.8125 C-19.51372132 48.79051763 -19.51372132 48.79051763 -22.5625 49.125 C-22.06418276 45.43745243 -21.46182357 43.52009338 -18.5625 41.125 C-17.0775 41.62 -17.0775 41.62 -15.5625 42.125 C-14.89275518 43.79043211 -14.22658825 45.45730428 -13.5625 47.125 C-11.59263865 49.47325377 -11.59263865 49.47325377 -9.2109375 51.69921875 C-8.36015625 52.53130859 -7.509375 53.36339844 -6.6328125 54.22070312 C-5.74335937 55.07599609 -4.85390625 55.93128906 -3.9375 56.8125 C-2.17010294 58.52022202 -0.40684046 60.23223713 1.3515625 61.94921875 C2.1348291 62.70291748 2.9180957 63.45661621 3.72509766 64.2331543 C5.4375 66.125 5.4375 66.125 5.4375 68.125 C9.16136131 66.09497838 11.7026561 63.98108574 14.4375 60.75 C18.16171346 56.43995521 21.86204775 52.39221159 26.3125 48.8125 C30.1568032 45.67166465 33.26406043 41.92386197 36.4375 38.125 C37.5821875 36.76375 37.5821875 36.76375 38.75 35.375 C41.98400387 31.06299484 43.1733129 27.58486683 43.4375 22.125 C42.34269782 15.81262705 40.65770737 11.13120565 35.4375 7.125 C30.28994054 3.65339013 25.45498474 3.42042109 19.4375 4.125 C15.73793534 5.07749986 13.07712262 6.40284543 10.5 9.3125 C9.9740625 10.2096875 9.9740625 10.2096875 9.4375 11.125 C4.97230834 10.61469238 2.85283427 8.94265077 -0.5625 6.125 C-5.0466024 3.633832 -9.55996386 3.59116654 -14.5625 4.125 C-20.61475499 5.86887008 -24.09864126 9.0105777 -27.5625 14.125 C-29.37036105 19.54858314 -29.49424095 25.6366559 -27.1875 30.9375 C-26.65125 31.989375 -26.115 33.04125 -25.5625 34.125 C-24.88973284 35.7892135 -24.22043165 37.45486582 -23.5625 39.125 C-25.5425 39.62 -25.5425 39.62 -27.5625 40.125 C-33.12164097 33.79908097 -35.23638638 28.31638205 -34.97265625 19.96875 C-33.91915889 12.66450161 -30.21684198 6.73976978 -24.3671875 2.30859375 C-16.86839982 -2.60944233 -8.24062743 -4.00045004 0 0 Z M63.4375 42.125 C62.7775 42.785 62.1175 43.445 61.4375 44.125 C61.75791397 46.72780568 61.75791397 46.72780568 62.4375 49.125 C64.78283951 49.89456136 64.78283951 49.89456136 67.4375 50.125 C69.41779682 49.06154948 69.41779682 49.06154948 70.4375 47.125 C70.20992269 44.96200789 70.20992269 44.96200789 69.4375 43.125 C66.53676819 42.44698966 66.53676819 42.44698966 63.4375 42.125 Z " fill="#4E8944" transform="translate(40.5625,4.875)"/>
<path d="M0 0 C2.20741085 1.23908717 3.62664731 2.31414731 5.4375 4.125 C8.40281461 3.91319181 9.9350644 2.7932904 12.4375 1.125 C18.2031674 -2.71877827 24.87285104 -2.70493617 31.5859375 -1.484375 C38.15237185 0.54005931 43.36639812 5.27372025 46.60546875 11.296875 C49.2014893 18.1708449 49.68343791 25.55208528 47.125 32.5 C43.89943774 38.97400084 38.47074805 44.03037087 33.4375 49.125 C32.5403125 50.03765625 31.643125 50.9503125 30.71875 51.890625 C28.63892957 53.98360885 26.54719052 56.06219149 24.4375 58.125 C23.7775 57.135 23.1175 56.145 22.4375 55.125 C24.28846778 53.89102148 26.14209024 52.66100155 28 51.4375 C30.70873836 49.2734061 30.70873836 49.2734061 31.3125 45.8125 C32.64621872 41.44086641 34.49783488 39.84804498 37.75390625 36.80859375 C41.86979013 32.69270987 43.24762796 27.82116123 43.4375 22.125 C42.32890589 15.80997284 40.66518452 11.13694394 35.4375 7.125 C30.28994054 3.65339013 25.45498474 3.42042109 19.4375 4.125 C15.73793534 5.07749986 13.07712262 6.40284543 10.5 9.3125 C9.9740625 10.2096875 9.9740625 10.2096875 9.4375 11.125 C4.97230834 10.61469238 2.85283427 8.94265077 -0.5625 6.125 C-5.0466024 3.633832 -9.55996386 3.59116654 -14.5625 4.125 C-20.61475499 5.86887008 -24.09864126 9.0105777 -27.5625 14.125 C-29.37036105 19.54858314 -29.49424095 25.6366559 -27.1875 30.9375 C-26.65125 31.989375 -26.115 33.04125 -25.5625 34.125 C-24.88973284 35.7892135 -24.22043165 37.45486582 -23.5625 39.125 C-25.5425 39.62 -25.5425 39.62 -27.5625 40.125 C-33.12164097 33.79908097 -35.23638638 28.31638205 -34.97265625 19.96875 C-33.91915889 12.66450161 -30.21684198 6.73976978 -24.3671875 2.30859375 C-16.86839982 -2.60944233 -8.24062743 -4.00045004 0 0 Z " fill="#83AE53" transform="translate(40.5625,4.875)"/>
<path d="M0 0 C2.6875 1.5625 2.6875 1.5625 4 4 C4.68312794 8.17467074 4.56736438 10.15873557 2.1875 13.6875 C-2.2894587 16.93548964 -8.32871268 20 -14 20 C-12.31192092 24.23084903 -12.31192092 24.23084903 -9 27 C-2.64116003 27.77577848 0.78673345 26.87964022 6 23 C7.32 23 8.64 23 10 23 C7.92370897 28.07537807 5.77026993 30.31672316 1 33 C-5.2826308 35.09421027 -12.59479684 35.07819452 -18.625 32.375 C-22.69943449 28.30056551 -24.16619088 24.83124336 -24.4375 19.125 C-24.22407157 12.68334201 -22.16242554 8.05430427 -17.5 3.625 C-11.64346924 -0.18174499 -6.97643799 -0.83632565 0 0 Z M-8 4 C-11.49357358 7.49357358 -13.55376936 9.9427194 -14 15 C-10.48134855 14.6984013 -8.99242548 13.99394038 -6.1875 11.75 C-3.77107097 9.21297008 -3.77107097 9.21297008 -3.6875 6.1875 C-3.790625 5.465625 -3.89375 4.74375 -4 4 C-5.32 4 -6.64 4 -8 4 Z " fill="#4A9732" transform="translate(257,45)"/>
<path d="M0 0 C3.08329483 2.75873748 3.90431316 4.40461521 4.5625 8.5 C4 12 4 12 1.55859375 14.30078125 C-1.47959832 17.50595792 -1.84317755 19.37468789 -2.5 23.6875 C-4.73061224 35.64257906 -9.41413087 42.60518667 -19 50 C-19.66 49.34 -20.32 48.68 -21 48 C-19.68 47.34 -18.36 46.68 -17 46 C-19.64 46.66 -22.28 47.32 -25 48 C-22.63202009 45.38275905 -20.10399646 43.67138271 -17 42 C-16.34 42 -15.68 42 -15 42 C-14.62875 41.0409375 -14.62875 41.0409375 -14.25 40.0625 C-13.56216041 38.377293 -12.85753415 36.69748741 -12.08203125 35.05078125 C-9.3334353 29.18500369 -7.55024572 23.28319288 -6 17 C-6.78761719 16.70609375 -7.57523438 16.4121875 -8.38671875 16.109375 C-11.43690169 14.81452903 -12.46008202 13.91773934 -14 11 C-14.5 8.0625 -14.5 8.0625 -14 5 C-9.74549219 -0.17440139 -6.55319209 -1.8723406 0 0 Z M-7 4 C-7.66 4.66 -8.32 5.32 -9 6 C-8.67958603 8.60280568 -8.67958603 8.60280568 -8 11 C-5.65466049 11.76956136 -5.65466049 11.76956136 -3 12 C-1.01970318 10.93654948 -1.01970318 10.93654948 0 9 C-0.22757731 6.83700789 -0.22757731 6.83700789 -1 5 C-3.90073181 4.32198966 -3.90073181 4.32198966 -7 4 Z " fill="#9AC24C" transform="translate(111,43)"/>
<path d="M0 0 C2.79227731 2.44324265 4.74336046 4.43472234 5.46875 8.15234375 C5.52443974 12.67017421 5.4766813 15.04899808 2.875 18.875 C-0.4595728 21.04972139 -2.09685718 21.44389206 -6 20.75 C-6.66 19.76 -7.32 18.77 -8 17.75 C-6.9790625 16.4815625 -6.9790625 16.4815625 -5.9375 15.1875 C-3.62242533 11.08010946 -3.92236526 9.24014476 -5 4.75 C-7.7936369 3.56807669 -9.0030715 3.75098027 -11.9375 4.6875 C-17.59698238 8.49898813 -20.21676295 14.26550165 -22 20.75 C-23.61778428 16.24107865 -21.97956591 13.32585605 -20.19140625 9.1015625 C-18.84553612 6.44512376 -17.34445333 4.59207047 -15 2.75 C-16.98 3.08 -18.96 3.41 -21 3.75 C-21 4.74 -21 5.73 -21 6.75 C-21.639375 6.87375 -22.27875 6.9975 -22.9375 7.125 C-23.618125 7.33125 -24.29875 7.5375 -25 7.75 C-25.33 8.41 -25.66 9.07 -26 9.75 C-26.66 9.42 -27.32 9.09 -28 8.75 C-22.1536181 -0.55106211 -10.08540514 -4.20225214 0 0 Z " fill="#528B3F" transform="translate(160,29.25)"/>
<path d="M0 0 C1.65 0 3.3 0 5 0 C7.0095763 6.02872891 6.29479052 12.84974502 5 19 C4.34 19 3.68 19 3 19 C3.33 21.64 3.66 24.28 4 27 C5.98 27 7.96 27 10 27 C10 27.66 10 28.32 10 29 C6.09971775 31.60018816 2.52565431 31.15085514 -2 31 C-5.07879569 20.03179034 -3.58748272 10.76244815 0 0 Z " fill="#4B9632" transform="translate(171,46)"/>
<path d="M0 0 C1.32 0.33 2.64 0.66 4 1 C3.773125 1.928125 3.54625 2.85625 3.3125 3.8125 C2.65666843 6.94233122 2.65666843 6.94233122 4.3125 8.875 C5.93932967 10.18490007 5.93932967 10.18490007 8 10 C7.01899955 11.99293335 6.02248213 13.96020498 4.9296875 15.89453125 C2.38734367 20.51783059 1.78959015 23.63454892 2 29 C1.34 29.99 0.68 30.98 0 32 C-0.33 32.99 -0.66 33.98 -1 35 C-6.875 32.25 -6.875 32.25 -8 30 C-7.71887936 27.99199544 -7.38932033 25.98985949 -7 24 C-6.34 24 -5.68 24 -5 24 C-4.86722656 22.87980469 -4.73445313 21.75960937 -4.59765625 20.60546875 C-4.41943431 19.13279271 -4.24103989 17.66013753 -4.0625 16.1875 C-3.97548828 15.44951172 -3.88847656 14.71152344 -3.79882812 13.95117188 C-3.41783454 10.83266879 -2.99630626 7.98891878 -2 5 C-1.34 5 -0.68 5 0 5 C0 3.35 0 1.7 0 0 Z " fill="#4A9730" transform="translate(377,42)"/>
<path d="M0 0 C0.5775 0.37125 1.155 0.7425 1.75 1.125 C0.90695313 1.86105469 0.06390625 2.59710938 -0.8046875 3.35546875 C-1.91187491 4.34067788 -3.01862276 5.32638115 -4.125 6.3125 C-4.95837891 7.03663086 -4.95837891 7.03663086 -5.80859375 7.77539062 C-9.75993623 11.32207755 -11.87937479 14.13111842 -12.55078125 19.5546875 C-12.57816875 25.26954537 -11.84471234 29.03537196 -9.25 34.125 C-8.57723284 35.7892135 -7.90793165 37.45486582 -7.25 39.125 C-9.23 39.62 -9.23 39.62 -11.25 40.125 C-16.80914097 33.79908097 -18.92388638 28.31638205 -18.66015625 19.96875 C-17.58452397 12.51103289 -13.81698094 6.90569618 -7.99609375 2.28125 C-2.86724016 -1.11503784 -2.86724016 -1.11503784 0 0 Z " fill="#196C45" transform="translate(24.25,4.875)"/>
<path d="M0 0 C7.29728872 -0.48290881 12.85217836 -0.22181235 19 4 C19.66 4.66 20.32 5.32 21 6 C25.06476236 5.69890649 28.58868696 3.03366739 32 1 C32.495 1.495 32.495 1.495 33 2 C34.33834186 1.82673253 35.67116311 1.61031487 37 1.375 C42.24191003 0.69346756 46.19323748 1.98865965 51 4 C51 4.99 51 5.98 51 7 C50.44183594 6.68417969 49.88367188 6.36835938 49.30859375 6.04296875 C44.10696381 3.6929938 37.45732796 3.36280161 32 5 C32 5.66 32 6.32 32 7 C31.401875 7.2475 30.80375 7.495 30.1875 7.75 C27.71352479 9.16370012 26.56629745 10.65055383 25 13 C20.53480834 12.48969238 18.41533427 10.81765077 15 8 C11.10947118 6.07153407 8.00419727 5.78012753 3.6875 5.875 C2.61886719 5.89304687 1.55023437 5.91109375 0.44921875 5.9296875 C-0.76314453 5.96449219 -0.76314453 5.96449219 -2 6 C-1.34 5.01 -0.68 4.02 0 3 C0 2.01 0 1.02 0 0 Z " fill="#348342" transform="translate(25,3)"/>
<path d="M0 0 C2.375 -0.125 2.375 -0.125 5 0 C7 2 7 2 7.01171875 4.171875 C6.90472656 5.02265625 6.79773438 5.8734375 6.6875 6.75 C6.52121094 8.09964844 6.52121094 8.09964844 6.3515625 9.4765625 C5.30071194 17.01933432 5.30071194 17.01933432 4.38671875 20 C3.63144524 22.39215291 3.63144524 22.39215291 3 26 C4.20320443 28.50041272 4.20320443 28.50041272 6 30 C4.3125 31.1875 4.3125 31.1875 2 32 C-0.64453125 30.55078125 -0.64453125 30.55078125 -3 29 C-2.88597936 26.72858891 -2.75841495 24.45785448 -2.625 22.1875 C-2.55539062 20.92292969 -2.48578125 19.65835938 -2.4140625 18.35546875 C-2 15 -2 15 0 12 C0.24219315 9.02550392 0.24219315 9.02550392 0.125 5.8125 C0.10695313 4.72582031 0.08890625 3.63914063 0.0703125 2.51953125 C0.04710937 1.68808594 0.02390625 0.85664062 0 0 Z " fill="#499830" transform="translate(337,46)"/>
<path d="M0 0 C4.91845576 0.95195918 9.20106298 2.02204879 13.75 4.125 C19.68555664 6.61830592 25.64995531 6.73997811 32 6 C33.33617416 5.33904552 34.67013875 4.67356609 36 4 C36.99 4.33 37.98 4.66 39 5 C35.16277612 9.60466865 31.20792071 10.67072665 25.48828125 11.2578125 C17.93903684 11.58089001 10.43498095 10.28698809 4.234375 5.69140625 C2.440011 3.95376065 1.11744786 2.23489572 0 0 Z " fill="#67993C" transform="translate(56,84)"/>
<path d="M0 0 C2.6875 1.5625 2.6875 1.5625 4 4 C4.5625 7.4375 4.5625 7.4375 4 11 C1.75700764 13.8660458 0.14050868 15.59928073 -3.3125 16.8125 C-4.1478125 16.9053125 -4.1478125 16.9053125 -5 17 C-4.67 16.01 -4.34 15.02 -4 14 C-3.01 14 -2.02 14 -1 14 C1.09350689 10.5980513 1.17942163 7.94727588 1 4 C-2.11332248 4.66868314 -2.11332248 4.66868314 -3.1875 7.0625 C-3.455625 7.701875 -3.72375 8.34125 -4 9 C-4 7.35 -4 5.7 -4 4 C-8.90629228 5.36285897 -10.45770646 7.70440058 -13 12 C-13.99 13.485 -13.99 13.485 -15 15 C-14.125 9.25 -14.125 9.25 -13 7 C-15.33165034 6.66501699 -15.33165034 6.66501699 -18 7 C-20.31377147 8.89584109 -20.31377147 8.89584109 -22 11 C-20.42969675 5.86082572 -17.7056571 3.61991058 -13.1796875 0.91015625 C-8.97135991 -0.84708448 -4.46496963 -0.53525433 0 0 Z " fill="#518D3E" transform="translate(257,45)"/>
<path d="M0 0 C1.32 0.66 2.64 1.32 4 2 C3.855625 2.825 3.71125 3.65 3.5625 4.5 C2.94746848 8.32686278 2.46439363 12.15216707 2 16 C0.68 15.67 -0.64 15.34 -2 15 C-2.23428313 19.7897321 -2.23428313 19.7897321 0 24 C2.56282742 24.72965366 2.56282742 24.72965366 5 25 C5 26.32 5 27.64 5 29 C-0.34582152 29.36448783 -0.34582152 29.36448783 -3.15234375 27.80078125 C-5.49821098 25.51442862 -5.60589105 24.22886541 -5.8125 21 C-5.88082031 20.13375 -5.94914062 19.2675 -6.01953125 18.375 C-6 16 -6 16 -5 13 C-4.34 13 -3.68 13 -3 13 C-3.33 12.01 -3.66 11.02 -4 10 C-3.625 8.0625 -3.625 8.0625 -3 6 C-2.7215625 4.88625 -2.7215625 4.88625 -2.4375 3.75 C-2.2209375 2.88375 -2.2209375 2.88375 -2 2 C-1.34 2 -0.68 2 0 2 C0 1.34 0 0.68 0 0 Z " fill="#49972E" transform="translate(321,49)"/>
<path d="M0 0 C2.53690147 2.53690147 2.27450848 4.26540824 2.36328125 7.734375 C1.4290535 13.56074163 -2.17738923 17.67357719 -6.125 21.8125 C-6.60493408 22.32586914 -7.08486816 22.83923828 -7.5793457 23.36816406 C-11.94858523 28.01503311 -16.4395722 32.54091504 -21 37 C-21.66 36.01 -22.32 35.02 -23 34 C-21.14903222 32.76602148 -19.29540976 31.53600155 -17.4375 30.3125 C-14.72876164 28.1484061 -14.72876164 28.1484061 -14.125 24.6875 C-12.61344258 19.73295069 -9.76581136 17.38839151 -6 14 C-1.73089755 9.97311613 -0.80131158 5.74273299 0 0 Z " fill="#6A9941" transform="translate(86,26)"/>
<path d="M0 0 C0.33 0 0.66 0 1 0 C1.01417969 0.94101562 1.02835938 1.88203125 1.04296875 2.8515625 C1.05498357 10.7876255 1.05498357 10.7876255 4.1875 17.8125 C9.54831074 21.98201946 14.61548836 21.00055519 21.0234375 20.25390625 C22.00183594 20.12822266 22.00183594 20.12822266 23 20 C23 19.67 23 19.34 23 19 C21.84371094 18.96132812 21.84371094 18.96132812 20.6640625 18.921875 C19.66117188 18.86515625 18.65828125 18.8084375 17.625 18.75 C16.12839844 18.68039063 16.12839844 18.68039063 14.6015625 18.609375 C12 18 12 18 10.6484375 15.953125 C10.43445313 15.30859375 10.22046875 14.6640625 10 14 C10.56976563 14.32226562 11.13953125 14.64453125 11.7265625 14.9765625 C15.43360696 16.64536946 19.01341705 16.59625415 23 16 C26.27310553 14.09643013 26.27310553 14.09643013 29 12 C30.32 12 31.64 12 33 12 C30.92370897 17.07537807 28.77026993 19.31672316 24 22 C17.7173692 24.09421027 10.40520316 24.07819452 4.375 21.375 C0.14623254 17.14623254 -1.16398324 13.72185121 -1.25 7.8125 C-1.19511098 4.83477041 -0.95231986 2.85695958 0 0 Z " fill="#558942" transform="translate(234,56)"/>
<path d="M0 0 C6.15234375 -0.09765625 6.15234375 -0.09765625 8 0 C9 1 9 1 9.0625 3.5625 C9.041875 4.366875 9.02125 5.17125 9 6 C8.34 4.68 7.68 3.36 7 2 C5.68 2 4.36 2 3 2 C2.54074888 4.12480184 2.08265412 6.24985362 1.625 8.375 C1.35042969 9.64601563 1.07585937 10.91703125 0.79296875 12.2265625 C-0.03689449 16.17556688 -0.78156222 20.13393888 -1.47265625 24.109375 C-2 26 -2 26 -4 28 C-3.67 28.66 -3.34 29.32 -3 30 C0.02934491 30.65772428 0.02934491 30.65772428 3 31 C3.33 30.01 3.66 29.02 4 28 C4.66 28.33 5.32 28.66 6 29 C5.67 30.65 5.34 32.3 5 34 C2.36 34 -0.28 34 -3 34 C-3.495 32.515 -3.495 32.515 -4 31 C-5.65 31.66 -7.3 32.32 -9 33 C-8.34 31.68 -7.68 30.36 -7 29 C-8.32 29 -9.64 29 -11 29 C-10 27 -10 27 -7.5625 25.6875 C-4.37702079 23.5897454 -4.13283948 22.61944565 -3 19 C-2.35056472 15.74410146 -1.85507981 12.47212768 -1.375 9.1875 C-1.17390625 7.86202148 -1.17390625 7.86202148 -0.96875 6.50976562 C-0.6404429 4.3405937 -0.31770124 2.17074622 0 0 Z M-1 28 C-0.34 28.66 0.32 29.32 1 30 C0.34 30 -0.32 30 -1 30 C-1 29.34 -1 28.68 -1 28 Z " fill="#568C43" transform="translate(207,45)"/>
<path d="M0 0 C0.99 0.33 1.98 0.66 3 1 C3.28875 1.7425 3.5775 2.485 3.875 3.25 C4.87146051 6.20643131 4.87146051 6.20643131 7.5625 8.5 C10.13818033 11.14172341 10.69139959 12.3996619 11 16 C11.99 16.33 12.98 16.66 14 17 C13.67 17.66 13.34 18.32 13 19 C8.71657993 18.52406444 6.84426611 16.05238315 4 13 C1.47943955 10.22847788 1.47943955 10.22847788 -1 8 C-1.99 8 -2.98 8 -4 8 C-3.50168276 4.31245243 -2.89932357 2.39509338 0 0 Z " fill="#256C40" transform="translate(22,46)"/>
<path d="M0 0 C5.62796438 0.66211346 9.31380843 3.35938118 13.3125 7.25 C15.56673986 10.92357607 15.70987885 13.72071301 16 18 C14.68 18 13.36 18 12 18 C11.731875 17.32453125 11.46375 16.6490625 11.1875 15.953125 C9.07302282 11.1399072 7.5511697 7.74204351 2.6875 5.375 C1.470625 4.92125 0.25375 4.4675 -1 4 C-0.67 2.68 -0.34 1.36 0 0 Z " fill="#6A9B66" transform="translate(64,11)"/>
<path d="M0 0 C0.66 0.33 1.32 0.66 2 1 C3.35991287 0.83324536 4.71404695 0.61757886 6.0625 0.375 C11.27519858 -0.31043601 15.219931 0.99982928 20 3 C20 3.99 20 4.98 20 6 C19.44183594 5.68417969 18.88367188 5.36835938 18.30859375 5.04296875 C13.10696381 2.6929938 6.45732796 2.36280161 1 4 C1 4.66 1 5.32 1 6 C0.1028125 6.37125 0.1028125 6.37125 -0.8125 6.75 C-3.28647521 8.16370012 -4.43370255 9.65055383 -6 12 C-9.24208567 11.64950425 -10.61527704 11.43778819 -12.8125 8.9375 C-13.204375 8.298125 -13.59625 7.65875 -14 7 C-13.1028125 7.4640625 -13.1028125 7.4640625 -12.1875 7.9375 C-9.91043228 9.10209704 -9.91043228 9.10209704 -7 10 C-7 9.34 -7 8.68 -7 8 C-7.66 8 -8.32 8 -9 8 C-9 7.34 -9 6.68 -9 6 C-7.03125 4.4921875 -7.03125 4.4921875 -4.5 2.875 C-3.24703125 2.06675781 -3.24703125 2.06675781 -1.96875 1.2421875 C-0.99421875 0.62730469 -0.99421875 0.62730469 0 0 Z " fill="#499C3C" transform="translate(56,4)"/>
<path d="M0 0 C0.99 0.33 1.98 0.66 3 1 C3 2.32 3 3.64 3 5 C2.34 5.66 1.68 6.32 1 7 C1 7.66 1 8.32 1 9 C1.9590625 8.7215625 1.9590625 8.7215625 2.9375 8.4375 C3.618125 8.293125 4.29875 8.14875 5 8 C6 9 6 9 6.0625 12.0625 C6.041875 13.031875 6.02125 14.00125 6 15 C8.31 15.33 10.62 15.66 13 16 C13 16.66 13 17.32 13 18 C8.94214651 20.02892674 6.3831949 20.16885197 2 19 C0 17 0 17 -0.5 13.4375 C-0.665 12.303125 -0.83 11.16875 -1 10 C-1.66 9.67 -2.32 9.34 -3 9 C-2.01 6.03 -1.02 3.06 0 0 Z " fill="#48982F" transform="translate(355,58)"/>
<path d="M0 0 C0.66 0.33 1.32 0.66 2 1 C2.33 0.67 2.66 0.34 3 0 C3.33 0 3.66 0 4 0 C3.67 5.28 3.34 10.56 3 16 C-3 17 -3 17 -5 16 C-5 15.01 -5 14.02 -5 13 C-5.020625 12.01 -5.04125 11.02 -5.0625 10 C-4.95883271 5.02396986 -3.37526836 3.37526836 0 0 Z " fill="#49972F" transform="translate(297,60)"/>
<path d="M0 0 C0.66 0 1.32 0 2 0 C2 3.3 2 6.6 2 10 C2.66 9.01 3.32 8.02 4 7 C4.27263672 8.22976562 4.27263672 8.22976562 4.55078125 9.484375 C4.80214844 10.56203125 5.05351562 11.6396875 5.3125 12.75 C5.55613281 13.81734375 5.79976562 14.8846875 6.05078125 15.984375 C6.82022551 19.01920544 6.82022551 19.01920544 8.66796875 21.203125 C9.10753906 21.79609375 9.54710937 22.3890625 10 23 C9.67 23.99 9.34 24.98 9 26 C6.37843912 25.63108098 5.2731196 25.32833246 3.55078125 23.2578125 C3.14214844 22.55398437 2.73351562 21.85015625 2.3125 21.125 C1.89613281 20.42632812 1.47976562 19.72765625 1.05078125 19.0078125 C-0.8412767 15.39250475 -1.13580323 12.51880052 -1.125 8.5 C-1.12757813 7.5409375 -1.13015625 6.581875 -1.1328125 5.59375 C-1 3 -1 3 0 0 Z " fill="#236C4D" transform="translate(7,19)"/>
<path d="M0 0 C13.40566038 11.21698113 13.40566038 11.21698113 15 16 C15.99 16.33 16.98 16.66 18 17 C17.67 18.65 17.34 20.3 17 22 C11.54680815 20.18226938 8.47959156 15.37755067 5 11 C3.68505488 9.64852862 2.35735142 8.30887458 1 7 C1.66 6.34 2.32 5.68 3 5 C2.2575 4.319375 2.2575 4.319375 1.5 3.625 C0 2 0 2 0 0 Z " fill="#408145" transform="translate(32,58)"/>
<path d="M0 0 C1.76165463 3.52330927 0.0099899 7.33733547 -1 11 C-1.91932718 13.70889126 -2.93689441 16.34223603 -4 19 C-3.67 18.67 -3.34 18.34 -3 18 C-2.34 17.67 -1.68 17.34 -1 17 C-1.4804694 22.60547637 -4.5649288 24.9136127 -8.6640625 28.42578125 C-10.0974082 29.63155784 -11.54732101 30.81758687 -13 32 C-13.66 31.34 -14.32 30.68 -15 30 C-13.68 29.34 -12.36 28.68 -11 28 C-13.64 28.66 -16.28 29.32 -19 30 C-16.63202009 27.38275905 -14.10399646 25.67138271 -11 24 C-10.34 24 -9.68 24 -9 24 C-8.62875 23.0409375 -8.62875 23.0409375 -8.25 22.0625 C-7.55227299 20.35306882 -6.83490779 18.65019396 -6.046875 16.98046875 C-3.84015689 12.27884173 -2.34400091 7.8611638 -1.39453125 2.75 C-1 1 -1 1 0 0 Z " fill="#94B753" transform="translate(105,61)"/>
<path d="M0 0 C0.07037402 2.53346458 0.07102638 4.7237863 -0.5625 7.1875 C-1.22642103 9.08432232 -1.22642103 9.08432232 0 11 C-0.33 11.99 -0.66 12.98 -1 14 C-3.64 13.67 -6.28 13.34 -9 13 C-9.25 5.375 -9.25 5.375 -7 2 C-4.55618498 0.83918787 -2.71705736 0 0 0 Z " fill="#489A2E" transform="translate(290,31)"/>
<path d="M0 0 C4.34591343 2.35403644 6.15541352 5.31780307 7.6875 9.9140625 C6.6975 9.9140625 5.7075 9.9140625 4.6875 9.9140625 C4.0275 9.2540625 3.3675 8.5940625 2.6875 7.9140625 C-4.39819723 3.47131412 -11.14658156 3.45969919 -19.3125 3.9140625 C-16.44814935 1.04971185 -14.31912926 1.17255471 -10.3125 0.9140625 C-7.56823943 1.40357925 -4.99893695 2.14000439 -2.3125 2.9140625 C-1.6525 2.9140625 -0.9925 2.9140625 -0.3125 2.9140625 C-6.99938919 0.05517509 -12.16484068 -0.32446719 -19.3125 0.9140625 C-19.3125 0.2540625 -19.3125 -0.4059375 -19.3125 -1.0859375 C-12.89843369 -3.2239596 -6.17623293 -2.66474566 0 0 Z " fill="#71A45D" transform="translate(76.3125,5.0859375)"/>
<path d="M0 0 C2.475 0.99 2.475 0.99 5 2 C5.05389087 3.95803507 5.09274217 5.91648909 5.125 7.875 C5.14820313 8.96554688 5.17140625 10.05609375 5.1953125 11.1796875 C5 14 5 14 3 16 C-0.125 16.125 -0.125 16.125 -3 16 C-2.67 15.01 -2.34 14.02 -2 13 C-1.34 13 -0.68 13 0 13 C0 12.39671875 0 11.7934375 0 11.171875 C0 7.44791667 0 3.72395833 0 0 Z " fill="#499730" transform="translate(158,32)"/>
<path d="M0 0 C0.78761719 0.3609375 1.57523438 0.721875 2.38671875 1.09375 C10.35604185 4.48896457 17.32385906 6.15925934 26 5 C27.3338102 4.33428793 28.66724039 3.66781288 30 3 C30.99 3.33 31.98 3.66 33 4 C30.16608961 7.02935249 28.32171499 8.75757193 24.0546875 9.203125 C14.98748049 9.3981187 7.90042888 6.16568068 0 2 C0 1.34 0 0.68 0 0 Z " fill="#76A746" transform="translate(62,85)"/>
<path d="M0 0 C1.65 0.33 3.3 0.66 5 1 C5 5.29 5 9.58 5 14 C3.68 13.67 2.36 13.34 1 13 C-1.09669068 9.03126406 -2 6.51561274 -2 2 C-1.34 2 -0.68 2 0 2 C0 1.34 0 0.68 0 0 Z " fill="#499532" transform="translate(359,47)"/>
<path d="M0 0 C1.47906892 -0.02689216 2.95827483 -0.04634621 4.4375 -0.0625 C5.26121094 -0.07410156 6.08492187 -0.08570313 6.93359375 -0.09765625 C9 0 9 0 10 1 C10.04092937 3.33297433 10.04241723 5.66705225 10 8 C8.5393715 5.35261084 8 4.10551666 8 1 C6.35 1 4.7 1 3 1 C2.8453125 2.5159375 2.8453125 2.5159375 2.6875 4.0625 C2.13465737 8.33167364 1.44767075 12.57580823 0.6875 16.8125 C0.46449219 18.09769531 0.24148437 19.38289063 0.01171875 20.70703125 C-1 24 -1 24 -2.96484375 25.96875 C-5 27 -5 27 -7.25 26.6875 C-7.8275 26.460625 -8.405 26.23375 -9 26 C-7.57300781 25.58427734 -7.57300781 25.58427734 -6.1171875 25.16015625 C-2.8941722 23.37553034 -2.8941722 23.37553034 -2.22363281 20.81591797 C-1.7296525 18.02446316 -1.39571479 15.25932565 -1.125 12.4375 C-1.00898438 11.46619141 -0.89296875 10.49488281 -0.7734375 9.49414062 C-0.2019448 4.75895932 -0.2019448 4.75895932 0 0 Z " fill="#568944" transform="translate(168,45)"/>
<path d="M0 0 C0.845625 0.474375 1.69125 0.94875 2.5625 1.4375 C6.12587329 3.05721513 9.12561425 3.61256143 13 4 C13 4.33 13 4.66 13 5 C11.02 5 9.04 5 7 5 C7.33 5.99 7.66 6.98 8 8 C10.97 8.495 10.97 8.495 14 9 C14 9.33 14 9.66 14 10 C11.79229195 10.08165496 9.58369575 10.13948488 7.375 10.1875 C5.53035156 10.23970703 5.53035156 10.23970703 3.6484375 10.29296875 C-0.26407664 9.9787947 -2.64070218 8.96906533 -6 7 C-3.52930595 5.76465298 -1.73258157 5.92993381 1 6 C1.33 6 1.66 6 2 6 C2.33 5.01 2.66 4.02 3 3 C2.01 2.67 1.02 2.34 0 2 C0 1.34 0 0.68 0 0 Z " fill="#578D43" transform="translate(141,69)"/>
<path d="M0 0 C2 2 2 2 2.1875 5.875 C2.120382 8.71460774 1.90494365 11.28516905 1 14 C0.34 14 -0.32 14 -1 14 C-1.33 14.99 -1.66 15.98 -2 17 C-1.67 14.03 -1.34 11.06 -1 8 C-5.29 8 -9.58 8 -14 8 C-14 7.67 -14 7.34 -14 7 C-9.71 7 -5.42 7 -1 7 C-1 6.34 -1 5.68 -1 5 C-5.29 5 -9.58 5 -14 5 C-13.67 4.34 -13.34 3.68 -13 3 C-8.71 3.33 -4.42 3.66 0 4 C0 2.68 0 1.36 0 0 Z " fill="#599545" transform="translate(317,48)"/>
<path d="M0 0 C3.26527806 2.91227503 3.96140059 4.41135903 4.25 8.8125 C4.1675 9.864375 4.085 10.91625 4 12 C3.34 11.01 2.68 10.02 2 9 C1.01 9.66 0.02 10.32 -1 11 C-1 9.02 -1 7.04 -1 5 C-5.14093698 4.79029441 -5.14093698 4.79029441 -9 6 C-9 3 -9 3 -7.3125 1.3125 C-4.50727334 -0.27965567 -3.17084415 -0.63416883 0 0 Z " fill="#A0C152" transform="translate(111,43)"/>
<path d="M0 0 C0.99 0 1.98 0 3 0 C2.9375 2.25 2.9375 2.25 2 5 C-1.0698187 7.47005978 -3.99496016 9 -8 9 C-8.33 10.32 -8.66 11.64 -9 13 C-9.33 13 -9.66 13 -10 13 C-10.35433404 9.81099364 -10.32042729 8.43134443 -8.375 5.8125 C-5.68177925 3.75714733 -3.25174889 2.88684061 0 2 C0 1.34 0 0.68 0 0 Z " fill="#579042" transform="translate(409,57)"/>
<path d="M0 0 C0.66 0.99 1.32 1.98 2 3 C-0.06670156 5.75560209 -1.94363744 7.95674501 -4.6875 10.0625 C-7.21166197 12.17733841 -7.36507081 12.93117559 -8 16 C-8.99 16.33 -9.98 16.66 -11 17 C-11.33 16.01 -11.66 15.02 -12 14 C-10.48828125 11.66015625 -10.48828125 11.66015625 -8.3125 9.0625 C-7.60738281 8.20785156 -6.90226562 7.35320313 -6.17578125 6.47265625 C-4.19416333 4.220656 -2.14934675 2.09112517 0 0 Z " fill="#599139" transform="translate(71,49)"/>
<path d="M0 0 C2.64 0 5.28 0 8 0 C9.33355537 2.66711074 8.91547727 4.34884675 8.625 7.3125 C8.52574219 8.37597656 8.42648438 9.43945312 8.32421875 10.53515625 C8.21722656 11.67855469 8.11023438 12.82195313 8 14 C7.80782349 16.41629928 7.62016762 18.83296327 7.4375 21.25 C7.31181641 22.89742187 7.31181641 22.89742187 7.18359375 24.578125 C7.12300781 25.37734375 7.06242188 26.1765625 7 27 C6.34 27 5.68 27 5 27 C3.50893543 24.01787087 3.88058533 21.28390342 4 18 C4.33 17.67 4.66 17.34 5 17 C5.07205511 15.31391034 5.08386068 13.62499341 5.0625 11.9375 C5.04896484 10.55884766 5.04896484 10.55884766 5.03515625 9.15234375 C5.02355469 8.44207031 5.01195312 7.73179688 5 7 C5.99 7 6.98 7 8 7 C7.67 5.68 7.34 4.36 7 3 C4.69 2.67 2.38 2.34 0 2 C0 1.34 0 0.68 0 0 Z " fill="#558C44" transform="translate(189,45)"/>
<path d="M0 0 C6.15234375 -0.09765625 6.15234375 -0.09765625 8 0 C9 1 9 1 9.25 4.5 C9.2006671 12.08493266 7.43137807 19.57898631 6 27 C5.67 27 5.34 27 5 27 C4.6545663 15.48554334 4.6545663 15.48554334 6.0625 10.5625 C6.97284156 7.10320208 7.04968624 5.35899597 6 2 C4.35 1.67 2.7 1.34 1 1 C0.67 4.63 0.34 8.26 0 12 C-0.33 12 -0.66 12 -1 12 C-0.67 8.04 -0.34 4.08 0 0 Z " fill="#588947" transform="translate(336,45)"/>
<path d="M0 0 C5.04424468 0.44508041 7.44443409 2.60980925 11 6 C11 6.66 11 7.32 11 8 C11.66 8 12.32 8 13 8 C13 8.66 13 9.32 13 10 C9.9164937 9.32261647 7.20055451 8.26497718 4.3125 7 C-0.53109083 5.01362397 -4.79068904 4.33608458 -10 4 C-10 3.67 -10 3.34 -10 3 C-8.25034642 2.94570041 -6.50020213 2.90707177 -4.75 2.875 C-3.77546875 2.85179687 -2.8009375 2.82859375 -1.796875 2.8046875 C1.0196498 3.00137219 2.60949036 3.55431084 5 5 C4.67 4.67 4.34 4.34 4 4 C2.66666667 2.66666667 1.33333333 1.33333333 0 0 Z " fill="#428946" transform="translate(36,4)"/>
<path d="M0 0 C1.65 0.33 3.3 0.66 5 1 C5.66 3.31 6.32 5.62 7 8 C5.02 8.66 3.04 9.32 1 10 C-0.625 7.25 -0.625 7.25 -2 4 C-1.1875 1.625 -1.1875 1.625 0 0 Z " fill="#4A9732" transform="translate(226,46)"/>
<path d="M0 0 C2.31 0.33 4.62 0.66 7 1 C8.60355101 4.50776784 9.22036864 7.14354879 9 11 C7.68 11 6.36 11 5 11 C3.35 7.37 1.7 3.74 0 0 Z " fill="#80AC52" transform="translate(71,18)"/>
<path d="M0 0 C8.25618096 6.58232509 8.25618096 6.58232509 10 11 C9.1875 13.3125 9.1875 13.3125 8 15 C5.35247996 12.42215154 3.05567935 10.08351902 1 7 C1.66 6.34 2.32 5.68 3 5 C2.2575 4.319375 2.2575 4.319375 1.5 3.625 C0 2 0 2 0 0 Z " fill="#3D7543" transform="translate(32,58)"/>
<path d="M0 0 C0.33 0 0.66 0 1 0 C1.38133299 1.9914056 1.71325582 3.99279077 2 6 C1.67 6.33 1.34 6.66 1 7 C0.92820036 8.51928038 0.91607993 10.04167482 0.9375 11.5625 C0.94652344 12.38878906 0.95554687 13.21507813 0.96484375 14.06640625 C0.97644531 14.70449219 0.98804688 15.34257813 1 16 C3.31 16 5.62 16 8 16 C8 16.99 8 17.98 8 19 C1.9453125 19.1953125 1.9453125 19.1953125 0 19 C-2 17 -2 17 -2.01171875 14.35546875 C-1.90472656 13.31003906 -1.79773438 12.26460937 -1.6875 11.1875 C-1.58824219 10.14980469 -1.48898437 9.11210938 -1.38671875 8.04296875 C-1.04112629 5.3236099 -0.57917895 2.67808386 0 0 Z " fill="#558943" transform="translate(292,60)"/>
<path d="M0 0 C3.125 0.25 3.125 0.25 5.0625 1.5 C6.125 3.25 6.125 3.25 5.8125 5.4375 C5.4721875 6.3346875 5.4721875 6.3346875 5.125 7.25 C4.795 5.6 4.465 3.95 4.125 2.25 C2.145 2.58 0.165 2.91 -1.875 3.25 C-2.535 8.53 -3.195 13.81 -3.875 19.25 C-4.535 19.25 -5.195 19.25 -5.875 19.25 C-5.56777348 16.27020106 -5.25448528 13.29126241 -4.9375 10.3125 C-4.85048828 9.46236328 -4.76347656 8.61222656 -4.67382812 7.73632812 C-4.58681641 6.92744141 -4.49980469 6.11855469 -4.41015625 5.28515625 C-4.331604 4.5362915 -4.25305176 3.78742676 -4.17211914 3.01586914 C-3.66966347 0.02962274 -3.10975352 0.27041335 0 0 Z " fill="#548444" transform="translate(380.875,21.75)"/>
<path d="M0 0 C3.44312714 2.1244827 4.71617547 3.14852641 6 7 C6.12781786 9.67394964 6.04391871 12.32095857 6 15 C4 13 4 13 3.6875 9.0625 C3.34677334 5.88623457 3.26653031 5.25869119 0.875 2.9375 C-2.77681426 1.746691 -5.26953031 2.24008951 -9 3 C-9.99 3 -10.98 3 -12 3 C-8.50517805 -0.49482195 -4.70927173 -0.85962897 0 0 Z " fill="#588D48" transform="translate(397,45)"/>
<path d="M0 0 C0.33 0 0.66 0 1 0 C1 3.3 1 6.6 1 10 C0.34 10 -0.32 10 -1 10 C-0.67 10.66 -0.34 11.32 0 12 C1.98 11.67 3.96 11.34 6 11 C5 14 5 14 3 15 C0 15.25 0 15.25 -3 15 C-3.66 14.01 -4.32 13.02 -5 12 C-4.360625 11.13375 -3.72125 10.2675 -3.0625 9.375 C-1.02451704 6.0401188 -0.36566907 3.83952522 0 0 Z " fill="#5A8C44" transform="translate(157,35)"/>
<path d="M0 0 C0.33 0.99 0.66 1.98 1 3 C0.34 3 -0.32 3 -1 3 C-0.938125 4.175625 -0.938125 4.175625 -0.875 5.375 C-1 8 -1 8 -3 10 C-5.4375 9.875 -5.4375 9.875 -8 9 C-9.8125 6.9375 -9.8125 6.9375 -11 5 C-10.1028125 5.4640625 -10.1028125 5.4640625 -9.1875 5.9375 C-6.91043228 7.10209704 -6.91043228 7.10209704 -4 8 C-4 7.34 -4 6.68 -4 6 C-4.66 6 -5.32 6 -6 6 C-6 5.34 -6 4.68 -6 4 C-4.03852126 2.61061923 -2.03833424 1.2739589 0 0 Z " fill="#53944B" transform="translate(53,6)"/>
<path d="M0 0 C6.15234375 -0.09765625 6.15234375 -0.09765625 8 0 C9 1 9 1 9.09765625 2.84765625 C9.04882812 5.92382812 9.04882812 5.92382812 9 9 C8.67 9 8.34 9 8 9 C8 7.02 8 5.04 8 3 C6.35 2.67 4.7 2.34 3 2 C3 2.66 3 3.32 3 4 C2.34 4 1.68 4 1 4 C1 5.65 1 7.3 1 9 C0.01 9.495 0.01 9.495 -1 10 C-0.67 6.7 -0.34 3.4 0 0 Z " fill="#548A43" transform="translate(356,45)"/>
<path d="M0 0 C0.66 0 1.32 0 2 0 C2 3.3 2 6.6 2 10 C2.66 9.01 3.32 8.02 4 7 C4.625 10.375 4.625 10.375 5 14 C4.34 14.66 3.68 15.32 3 16 C2.67 15.01 2.34 14.02 2 13 C1.01 13.33 0.02 13.66 -1 14 C-1.02705729 12.22925083 -1.04642195 10.45838289 -1.0625 8.6875 C-1.07410156 7.70136719 -1.08570313 6.71523438 -1.09765625 5.69921875 C-1 3 -1 3 0 0 Z " fill="#277155" transform="translate(7,19)"/>
<path d="M0 0 C2.57412647 2.25920675 2.96847031 2.7871746 3.5 6.375 C2.87444519 10.91027235 1.57604801 12.23669018 -2 15 C-4.3125 15.8125 -4.3125 15.8125 -6 16 C-5.67 15.01 -5.34 14.02 -5 13 C-4.01 13 -3.02 13 -2 13 C-0.21590198 9.93753253 0.22880021 7.77920727 0.125 4.25 C0.10695313 3.45078125 0.08890625 2.6515625 0.0703125 1.828125 C0.04710937 1.22484375 0.02390625 0.6215625 0 0 Z " fill="#568945" transform="translate(258,46)"/>
<path d="M0 0 C3 2 3 2 3.6875 4.625 C3.790625 5.40875 3.89375 6.1925 4 7 C4.99 7.33 5.98 7.66 7 8 C6.67 8.66 6.34 9.32 6 10 C4.25 9.875 4.25 9.875 2 9 C-0.25 5.9375 -0.25 5.9375 -2 3 C-1 1 -1 1 0 0 Z " fill="#2D763A" transform="translate(29,55)"/>
<path d="M0 0 C0.66 0.66 1.32 1.32 2 2 C0.12050295 5.57104439 -1.17053157 7.54744301 -5 9 C-5.33 8.34 -5.66 7.68 -6 7 C-4.68 6.34 -3.36 5.68 -2 5 C-4.64 5.66 -7.28 6.32 -10 7 C-7.2180632 3.72713318 -3.72045933 2.03572303 0 0 Z " fill="#8BB24D" transform="translate(96,84)"/>
<path d="M0 0 C0.66 0 1.32 0 2 0 C2.03738281 0.62648438 2.07476562 1.25296875 2.11328125 1.8984375 C2.17902344 2.71570313 2.24476563 3.53296875 2.3125 4.375 C2.37050781 5.18710938 2.42851562 5.99921875 2.48828125 6.8359375 C2.82990528 9.37921338 2.82990528 9.37921338 6 11 C8.05709596 11.24055468 8.05709596 11.24055468 10.1875 11.125 C11.445625 11.08375 12.70375 11.0425 14 11 C13.67 11.66 13.34 12.32 13 13 C5.67973856 13.36601307 5.67973856 13.36601307 2.5625 11.6875 C-0.63952169 8.22931657 -0.08417775 4.46142071 0 0 Z " fill="#5A8A4C" transform="translate(314,66)"/>
<path d="M0 0 C2 2 2 2 2.1953125 3.9453125 C2.13020833 5.96354167 2.06510417 7.98177083 2 10 C1.34 10 0.68 10 0 10 C-0.33 11.32 -0.66 12.64 -1 14 C-1.66 14 -2.32 14 -3 14 C-2.09276387 9.31261335 -1.0452733 4.65806256 0 0 Z " fill="#72AC3D" transform="translate(86,26)"/>
<path d="M0 0 C0.26218749 3.14624993 0.24754367 4.61837017 -1.5 7.3125 C-2.2425 8.1478125 -2.2425 8.1478125 -3 9 C-4.32 8.67 -5.64 8.34 -7 8 C-6.01 7.34 -5.02 6.68 -4 6 C-3.67 5.01 -3.34 4.02 -3 3 C-4.65 3.33 -6.3 3.66 -8 4 C-6.4425489 0.88509781 -3.40085499 0 0 0 Z " fill="#4E9438" transform="translate(290,31)"/>
<path d="M0 0 C2.97 0.495 2.97 0.495 6 1 C6 1.66 6 2.32 6 3 C7.32 3.66 8.64 4.32 10 5 C10 5.99 10 6.98 10 8 C5.74508335 7.52723148 3.77457155 5.07452523 1 2 C0.67 1.34 0.34 0.68 0 0 Z " fill="#529637" transform="translate(56,84)"/>
<path d="M0 0 C2.51083114 1.25541557 2.87125446 2.50063488 4 5 C1.69 5.33 -0.62 5.66 -3 6 C-3.33 4.68 -3.66 3.36 -4 2 C-2.125 0.9375 -2.125 0.9375 0 0 Z " fill="#538F3D" transform="translate(248,58)"/>
<path d="M0 0 C0.33 0 0.66 0 1 0 C0.91256669 1.91750286 0.8043811 3.83406665 0.6875 5.75 C0.62949219 6.81734375 0.57148438 7.8846875 0.51171875 8.984375 C-0.03090154 12.1821068 -0.85071145 13.62598691 -3 16 C-3.37851209 10.06997733 -2.10575375 5.52760359 0 0 Z " fill="#568E44" transform="translate(326,48)"/>
<path d="M0 0 C2.0625 0.4375 2.0625 0.4375 4 1 C4 2.98 4 4.96 4 7 C2.68 7.33 1.36 7.66 0 8 C-0.38063221 5.6739143 -0.71269945 3.33944736 -1 1 C-0.67 0.67 -0.34 0.34 0 0 Z " fill="#48982D" transform="translate(255,48)"/>
<path d="M0 0 C1.98 0.99 1.98 0.99 4 2 C4 2.66 4 3.32 4 4 C5.32 4.33 6.64 4.66 8 5 C7.67 6.32 7.34 7.64 7 9 C3.17475764 7.549046 1.80909034 5.61818068 0 2 C0 1.34 0 0.68 0 0 Z " fill="#227033" transform="translate(21,50)"/>
<path d="M0 0 C0.99 0 1.98 0 3 0 C2.625 1.9375 2.625 1.9375 2 4 C-0.70879335 5.35439668 -3.00933268 5.06501451 -6 5 C-6.33 4.01 -6.66 3.02 -7 2 C-4.69 2.33 -2.38 2.66 0 3 C0 2.01 0 1.02 0 0 Z " fill="#5A9047" transform="translate(289,42)"/>
<path d="M0 0 C5.50366792 -0.32374517 9.43672206 -0.53286034 14 3 C13.67 3.66 13.34 4.32 13 5 C12.43796875 4.69320313 11.8759375 4.38640625 11.296875 4.0703125 C8.93653066 2.97042415 6.79534438 2.39904149 4.25 1.875 C3.45078125 1.70742187 2.6515625 1.53984375 1.828125 1.3671875 C1.22484375 1.24601563 0.6215625 1.12484375 0 1 C0 0.67 0 0.34 0 0 Z " fill="#5DA33C" transform="translate(63,5)"/>
<path d="M0 0 C3.625 -0.1875 3.625 -0.1875 7 0 C7 0.99 7 1.98 7 3 C4.03 3 1.06 3 -2 3 C-1.34 2.01 -0.68 1.02 0 0 Z " fill="#49982C" transform="translate(250,74)"/>
<path d="M0 0 C-3.75 3 -3.75 3 -6 3 C-6 3.66 -6 4.32 -6 5 C-7.32 5 -8.64 5 -10 5 C-8.94958421 2.13522966 -8.29875437 1.16086774 -5.5625 -0.3125 C-3 -1 -3 -1 0 0 Z " fill="#93B248" transform="translate(108,43)"/>
<path d="M0 0 C0.86625 0.556875 0.86625 0.556875 1.75 1.125 C0.43 2.445 -0.89 3.765 -2.25 5.125 C-2.91 4.795 -3.57 4.465 -4.25 4.125 C-4.91 4.125 -5.57 4.125 -6.25 4.125 C-6.25 3.135 -6.25 2.145 -6.25 1.125 C-2.80384615 -1.09038462 -2.80384615 -1.09038462 0 0 Z " fill="#217544" transform="translate(24.25,4.875)"/>
<path d="M0 0 C1.3303125 0.5259375 1.3303125 0.5259375 2.6875 1.0625 C6.12574826 2.03558913 7.61899233 1.75133504 11 1 C11.66 1.66 12.32 2.32 13 3 C9.87293041 4.5635348 6.42017557 4.39958487 3 4 C2.01 3.34 1.02 2.68 0 2 C0 1.34 0 0.68 0 0 Z " fill="#598A4A" transform="translate(334,75)"/>
<path d="M0 0 C0.99 0.495 0.99 0.495 2 1 C2 1.66 2 2.32 2 3 C5.3 3.66 8.6 4.32 12 5 C12 5.33 12 5.66 12 6 C4.65306122 6.48979592 4.65306122 6.48979592 1.5 4.125 C0 2 0 2 0 0 Z " fill="#578944" transform="translate(186,73)"/>
<path d="M0 0 C-0.33 1.65 -0.66 3.3 -1 5 C-4.39914975 3.86695008 -5.05254451 2.87481525 -7 0 C-4.3333581 -1.33332095 -2.83319697 -0.67102033 0 0 Z " fill="#3B8837" transform="translate(50,75)"/>
<path d="M0 0 C1.65 0.33 3.3 0.66 5 1 C5 2.32 5 3.64 5 5 C3.02 5 1.04 5 -1 5 C-0.67 3.35 -0.34 1.7 0 0 Z " fill="#45982D" transform="translate(168,66)"/>
<path d="M0 0 C2.475 0.495 2.475 0.495 5 1 C5.12375 1.639375 5.2475 2.27875 5.375 2.9375 C5.684375 3.9584375 5.684375 3.9584375 6 5 C6.66 5.33 7.32 5.66 8 6 C5.21788056 5.62403791 3.4120716 5.32681541 1.1875 3.5625 C0 2 0 2 0 0 Z " fill="#92B94D" transform="translate(98,54)"/>
<path d="M0 0 C1.76462683 3.08809695 2 4.23312136 2 8 C0.35 8.66 -1.3 9.32 -3 10 C-3.33 9.34 -3.66 8.68 -4 8 C-3.34 8 -2.68 8 -2 8 C-1.34 5.36 -0.68 2.72 0 0 Z " fill="#9CC63C" transform="translate(112,48)"/>
<path d="M0 0 C2 2 2 2 2.125 4.625 C2.08375 5.40875 2.0425 6.1925 2 7 C0.68 7 -0.64 7 -2 7 C-2.33 5.02 -2.66 3.04 -3 1 C-2.01 1.495 -2.01 1.495 -1 2 C-0.67 1.34 -0.34 0.68 0 0 Z " fill="#95B760" transform="translate(78,22)"/>
<path d="M0 0 C1.8125 0.125 1.8125 0.125 4 1 C5.75 4.0625 5.75 4.0625 7 7 C4 7 4 7 1.8125 5.1875 C0 3 0 3 0 0 Z " fill="#74A446" transform="translate(77,8)"/>
<path d="M0 0 C0.99 0.33 1.98 0.66 3 1 C0.69 3.64 -1.62 6.28 -4 9 C-4.33 8.01 -4.66 7.02 -5 6 C-2.66666667 1.33333333 -2.66666667 1.33333333 0 0 Z " fill="#2B764B" transform="translate(17,10)"/>
<path d="M0 0 C3 3 6 6 9 9 C4.56541027 7.6062718 2.12621626 5.39417765 -1 2 C-0.67 1.34 -0.34 0.68 0 0 Z " fill="#467E36" transform="translate(53,81)"/>
<path d="M0 0 C0.66 0.33 1.32 0.66 2 1 C1.3125 3.4375 1.3125 3.4375 0 6 C-2.625 6.8125 -2.625 6.8125 -5 7 C-3.47793991 4.37098712 -2.15634036 2.15634036 0 0 Z " fill="#467A32" transform="translate(59,61)"/>
<path d="M0 0 C0.33 0.99 0.66 1.98 1 3 C-0.65 4.65 -2.3 6.3 -4 8 C-4.33 7.34 -4.66 6.68 -5 6 C-5.99 6.495 -5.99 6.495 -7 7 C-6.67 6.01 -6.34 5.02 -6 4 C-5.01 3.67 -4.02 3.34 -3 3 C-2.34 3.33 -1.68 3.66 -1 4 C-0.67 2.68 -0.34 1.36 0 0 Z " fill="#739B46" transform="translate(86,36)"/>
<path d="M0 0 C1.32 0.66 2.64 1.32 4 2 C3.67 2.99 3.34 3.98 3 5 C1.68 5 0.36 5 -1 5 C-0.67 3.35 -0.34 1.7 0 0 Z " fill="#A3B85E" transform="translate(105,48)"/>
<path d="M0 0 C4.40114397 0.50298788 6.71195019 2.08772731 10 5 C9.67 5.66 9.34 6.32 9 7 C7.4972763 6.02501855 5.99788037 5.04490611 4.5 4.0625 C3.6646875 3.51722656 2.829375 2.97195312 1.96875 2.41015625 C1.3190625 1.94480469 0.669375 1.47945312 0 1 C0 0.67 0 0.34 0 0 Z " fill="#509540" transform="translate(65,13)"/>
<path d="M0 0 C1.9375 0.3125 1.9375 0.3125 4 1 C4.33 1.99 4.66 2.98 5 4 C4.01 5.485 4.01 5.485 3 7 C0 3.375 0 3.375 0 0 Z " fill="#367D3D" transform="translate(37,66)"/>
<path d="M0 0 C0.99 0 1.98 0 3 0 C2.625 2.4375 2.625 2.4375 2 5 C1.01 5.495 1.01 5.495 0 6 C0 5.34 0 4.68 0 4 C-0.99 3.67 -1.98 3.34 -3 3 C-2.01 2.67 -1.02 2.34 0 2 C0 1.34 0 0.68 0 0 Z " fill="#568246" transform="translate(409,57)"/>
<path d="M0 0 C2.475 0.99 2.475 0.99 5 2 C5 2.66 5 3.32 5 4 C3.35 4.33 1.7 4.66 0 5 C-0.5625 3.0625 -0.5625 3.0625 -1 1 C-0.67 0.67 -0.34 0.34 0 0 Z " fill="#448D2F" transform="translate(228,50)"/>
<path d="M0 0 C0.66 1.32 1.32 2.64 2 4 C0.35 4.33 -1.3 4.66 -3 5 C-3.33 4.01 -3.66 3.02 -4 2 C-2.68 1.34 -1.36 0.68 0 0 Z " fill="#48972B" transform="translate(391,72)"/>
<path d="M0 0 C-0.66 0 -1.32 0 -2 0 C-2 0.66 -2 1.32 -2 2 C-1.34 2.33 -0.68 2.66 0 3 C-1.32 3.33 -2.64 3.66 -4 4 C-4.33 3.34 -4.66 2.68 -5 2 C-5.99 1.34 -6.98 0.68 -8 0 C-4.71303767 -0.79953138 -3.28976808 -1.09658936 0 0 Z " fill="#447E32" transform="translate(160,32)"/>
<path d="M0 0 C0.66 0.33 1.32 0.66 2 1 C0.515 4.465 0.515 4.465 -1 8 C-1.66 7.67 -2.32 7.34 -3 7 C-2.67 5.35 -2.34 3.7 -2 2 C-1.34 2 -0.68 2 0 2 C0 1.34 0 0.68 0 0 Z " fill="#449F2B" transform="translate(136,62)"/>
<path d="M0 0 C0.99 0 1.98 0 3 0 C3 1.32 3 2.64 3 4 C1.68 3.67 0.36 3.34 -1 3 C-0.67 2.01 -0.34 1.02 0 0 Z " fill="#94A970" transform="translate(77,31)"/>
</svg>
